# xmcd
#
# Track frame offsets:
#	150
#	11599
#	26472
#	39740
#	55099
#	71357
#	92995
#	109185
#	123474
#	138702
#	154077
#	166752
#
# Disc length: 2395 seconds
#
# Revision: 1
# Processed by: cddbd v1.5.2PL0 Copyright (c) Steve Scherf et al.
# Submitted via: audiograbber 1.83.01
#
DISCID=9c09590c
DTITLE=Various Artist - Die aktuelle Schlagertruhe [CD2)
DYEAR=2010
DGENRE=Schlager
TTITLE0=Michael Holm ( LC 18344) - Mendocino
TTITLE1=Antonia aus Tirol ( LC 18344 ) - Mein Herz ist doch kein Fussballplatz 
TTITLE1=( Radio Mix )
TTITLE2=Tony Marshall ( LC 18344 ) - Komm gib mir Deine Hand ( Neuaufnahme 2010
TTITLE2=)
TTITLE3=Ingrid Peters ( LC 18344) - Du bist einfach Wahnsinn
TTITLE4=Lena Valaitis  ( Lc 18344) - Und ich Rufe Deinen Namen
TTITLE5=Matthias Reim ( LC 18344 ) - Verdammt ich Lieb Dich ( Schmusemix )
TTITLE6=Lillie Sander ( LC 18344 ) - Unterm Regenbogen liegen
TTITLE7=Freddy Breck ( LC 18344 ) - Rote Rosen , Rote Lippen , Roter Wein
TTITLE8=Alpenrebellen ( LC 18344 ) - Butterfly
TTITLE9=Michael Morgan ( LC 18344 ) - Traeumen von Liebe
TTITLE10=Diana Sorbello ( LC 18344 ) - Das ist , weil ich Dich Liebe ( Sara Per
TTITLE10=che Ti Amo ) ( Radio Version )
TTITLE11=Marianne Rosenberg ( LC 18344 ) - Fremder Mann
EXTD=
EXTT0=
EXTT1=
EXTT2=
EXTT3=
EXTT4=
EXTT5=
EXTT6=
EXTT7=
EXTT8=
EXTT9=
EXTT10=
EXTT11=
PLAYORDER=
